<?xml version="1.0" standalone="no"?>
<!DOCTYPE svg PUBLIC "-//W3C//DTD SVG 20010904//EN"
 "http://www.w3.org/TR/2001/REC-SVG-20010904/DTD/svg10.dtd">
<svg version="1.0" xmlns="http://www.w3.org/2000/svg"
 width="1275.000000pt" height="1275.000000pt" viewBox="0 0 1275.000000 1275.000000"
 preserveAspectRatio="xMidYMid meet">
<metadata>
Created by potrace 1.11, written by Peter Selinger 2001-2013
</metadata>
<g transform="translate(0.000000,1275.000000) scale(0.100000,-0.100000)"
fill="#000000" stroke="none">
<path d="M5955 11323 c-214 -5 -525 -41 -835 -94 -719 -125 -1257 -340 -1655
-661 -106 -86 -286 -274 -359 -377 -230 -321 -363 -671 -426 -1122 -26 -178
-43 -502 -35 -644 31 -556 203 -1061 526 -1546 l77 -116 -186 -11 c-103 -7
-195 -12 -204 -12 -11 0 -18 -7 -18 -18 0 -32 -10 -31 -85 8 -143 75 -274 100
-528 100 -172 0 -279 -13 -581 -71 -200 -38 -196 -36 -196 -60 0 -24 3 -24
-62 6 -108 49 -202 68 -348 69 -159 1 -239 -18 -386 -89 -158 -76 -313 -251
-383 -433 -92 -240 -165 -712 -216 -1397 -40 -537 3 -786 164 -959 125 -132
294 -191 483 -167 196 25 531 169 651 279 l27 26 0 -34 0 -33 153 7 c226 11
495 69 627 136 33 17 61 30 64 30 2 0 7 -11 10 -25 6 -23 10 -25 41 -19 l35 6
-31 -73 c-17 -40 -37 -93 -45 -118 -77 -252 -74 -840 6 -1156 11 -44 41 -123
66 -174 62 -127 179 -247 299 -308 200 -102 410 -131 707 -98 173 19 284 40
365 70 l64 23 61 -32 61 -31 347 -3 346 -3 48 70 c27 39 52 69 55 66 4 -2 19
-30 35 -63 l28 -59 132 -8 c150 -10 92 -10 1706 -6 833 2 1308 -1 1485 -9 407
-19 504 -2 615 106 l45 44 80 -35 c107 -45 238 -83 360 -101 138 -22 407 -14
522 15 297 74 479 213 592 451 56 117 74 194 74 320 0 87 -5 118 -27 185 -14
44 -32 91 -40 104 -12 21 -8 38 33 160 44 133 45 139 46 266 0 116 -3 139 -28
217 -16 47 -44 109 -63 138 -19 28 -34 54 -34 56 0 2 15 4 33 4 18 0 63 8 100
19 l68 19 14 -35 c8 -20 15 -39 15 -44 0 -14 14 -18 186 -53 235 -49 448 -80
452 -66 2 6 16 3 35 -9 75 -46 366 -103 529 -105 112 -1 118 -2 118 -22 0 -19
14 -23 153 -48 83 -16 195 -37 249 -47 70 -13 156 -42 317 -107 l221 -90 0 33
c0 19 -32 379 -70 802 -39 422 -77 864 -85 981 -8 118 -19 241 -25 275 -33
207 -77 611 -116 1060 l-6 77 -198 0 c-108 0 -272 -3 -363 -7 l-166 -6 -22
-55 -23 -55 -25 33 c-61 79 -34 72 -273 77 -282 6 -386 -13 -460 -84 l-26 -25
-60 41 c-111 75 -242 123 -382 140 -190 24 -417 13 -723 -35 -59 -9 -110 -15
-112 -12 -2 2 18 61 45 131 109 277 188 592 230 912 34 260 41 641 15 840 -76
580 -337 1089 -786 1532 -288 284 -564 480 -952 673 -455 228 -941 370 -1482
434 -134 16 -479 37 -550 34 -22 -1 -85 -3 -140 -5z m-1610 -920 l33 -93 -35
-21 c-19 -12 -36 -19 -39 -16 -10 9 -24 80 -24 120 0 46 22 137 28 117 3 -8
19 -57 37 -107z m-356 -95 c31 -28 87 -71 124 -96 l68 -44 -68 -69 -68 -69
-52 54 c-55 59 -93 141 -93 202 0 34 14 74 26 74 4 0 32 -23 63 -52z m856 -52
c87 -43 155 -114 184 -191 41 -108 32 -269 -23 -463 -80 -277 -194 -455 -334
-520 -49 -23 -70 -27 -142 -26 -72 1 -108 9 -234 49 -189 60 -292 103 -355
149 -116 85 -120 210 -15 421 59 118 49 113 152 88 120 -30 214 -37 291 -23
118 21 178 68 230 180 49 105 56 204 25 349 l-7 34 77 -5 c61 -4 90 -12 151
-42z m445 -103 c-12 -29 -45 -74 -79 -107 l-57 -57 -11 46 -11 47 52 33 c28
18 67 47 86 63 19 17 36 29 38 27 2 -2 -6 -25 -18 -52z m-859 -121 c49 -40 15
-125 -50 -125 -62 0 -93 68 -55 121 19 28 72 30 105 4z m1002 -166 c22 -56
-129 -165 -247 -180 l-48 -6 6 68 c13 131 3 121 114 125 53 1 113 4 133 5 24
1 39 -3 42 -12z m1152 -126 c789 -8 834 -10 910 -30 229 -59 408 -215 495
-435 47 -116 52 -174 47 -522 -4 -357 -7 -376 -79 -523 -34 -69 -59 -102 -133
-176 -76 -76 -105 -98 -185 -138 -166 -81 -125 -79 -1130 -72 -1243 9 -1384
13 -1478 37 -258 65 -448 254 -521 519 -19 66 -21 103 -21 312 l0 238 43 0
c55 0 158 25 206 49 21 11 64 44 95 72 97 88 169 210 236 399 l38 104 87 13
c107 15 190 53 260 116 l50 46 125 0 c69 0 499 -4 955 -9z m1884 -240 c56 -25
105 -74 128 -128 22 -52 17 -179 -11 -317 -41 -202 -65 -346 -76 -445 -9 -92
-9 -95 14 -120 13 -14 27 -36 31 -49 14 -45 6 -216 -15 -314 -38 -187 -90
-242 -137 -147 -31 63 -54 176 -60 302 -7 127 6 189 46 217 25 18 27 28 39
141 7 68 31 211 53 319 49 238 56 363 23 408 -11 15 -40 38 -65 51 -37 20 -55
23 -116 19 -61 -3 -86 -11 -162 -49 l-89 -45 -17 35 c-16 34 -16 37 2 50 34
26 159 81 209 91 68 14 142 7 203 -19z m-3859 -1484 c105 -111 250 -196 405
-236 60 -16 128 -23 273 -28 l192 -7 -69 -105 c-164 -249 -356 -399 -523 -408
-78 -5 -107 8 -158 73 -100 126 -164 364 -205 770 l-5 50 17 -25 c10 -14 43
-51 73 -84z m3385 22 c-33 -270 -90 -517 -149 -642 -71 -150 -135 -204 -233
-192 -185 22 -382 196 -562 499 l-23 37 196 0 c204 0 282 10 388 50 116 43
256 144 334 241 26 32 49 59 52 59 2 0 1 -24 -3 -52z m-5730 -1457 c217 -14
329 -65 440 -199 99 -119 147 -252 148 -407 2 -269 -199 -557 -412 -591 -22
-4 -41 -11 -41 -16 0 -17 52 -112 153 -278 175 -289 294 -535 264 -545 -24 -8
-333 -64 -393 -70 l-60 -7 -13 43 c-61 205 -277 668 -312 669 -13 0 -41 -313
-55 -609 l-6 -143 -44 -19 c-84 -37 -446 -116 -438 -95 6 19 43 293 64 476 59
532 103 1108 117 1532 l6 206 86 15 c93 17 222 35 286 40 22 2 47 4 55 5 8 1
78 -2 155 -7z m7945 0 c219 -14 316 -56 445 -193 150 -158 224 -342 225 -553
0 -269 -148 -475 -343 -475 -36 0 -48 -3 -44 -13 2 -7 73 -127 158 -267 84
-140 187 -322 230 -405 79 -153 174 -374 164 -383 -7 -7 -298 36 -381 57 l-67
16 -47 115 c-69 169 -144 331 -206 450 -67 127 -175 300 -188 300 -13 0 1
-291 27 -544 19 -184 21 -219 9 -224 -24 -9 -211 7 -332 28 -63 11 -118 20
-122 20 -5 0 -8 62 -8 138 0 262 -51 1357 -81 1740 -6 79 -10 145 -8 147 5 4
284 43 349 48 25 2 52 4 60 5 8 1 80 -3 160 -7z m-3576 -22 c2 -2 9 -319 15
-704 6 -385 13 -786 16 -891 5 -175 4 -192 -12 -198 -9 -4 -81 -4 -159 0
l-142 7 -68 141 c-159 333 -234 498 -274 599 -23 59 -46 109 -50 112 -12 7
-16 -217 -10 -545 3 -168 4 -307 2 -310 -5 -7 -339 -6 -346 1 -3 3 -15 257
-26 565 -20 560 -25 1021 -14 1146 l7 66 56 4 c83 6 253 -9 267 -24 6 -7 40
-69 75 -138 72 -145 275 -526 294 -553 7 -10 15 -14 18 -9 11 16 12 177 3 454
l-9 277 39 4 c47 6 312 2 318 -4z m2556 -186 c23 -98 71 -299 107 -448 62
-261 170 -728 272 -1179 l49 -219 -87 6 c-89 7 -256 49 -278 70 -7 7 -33 93
-58 192 -25 99 -54 205 -66 236 -20 55 -21 57 -66 63 -84 11 -121 8 -132 -13
-6 -10 -26 -98 -45 -194 -19 -96 -42 -191 -50 -212 -16 -37 -17 -37 -58 -31
-126 19 -267 36 -300 36 -21 0 -38 3 -38 8 0 20 86 501 121 682 57 290 98 468
191 842 l81 327 76 4 c42 1 113 4 158 5 l81 2 42 -177z m-5092 154 c13 -9 18
-285 6 -345 -6 -28 -9 -30 -78 -41 -39 -6 -179 -15 -312 -21 -132 -5 -255 -13
-271 -16 l-31 -6 -7 -102 c-4 -55 -5 -128 -3 -161 l3 -60 160 0 c95 0 163 -4
167 -10 4 -5 8 -87 8 -182 l0 -172 -37 -10 c-21 -5 -78 -12 -128 -16 -49 -3
-106 -11 -126 -16 -35 -9 -36 -11 -43 -62 -8 -72 -7 -279 2 -293 5 -8 88 -6
307 7 165 10 321 18 348 18 l47 1 0 -125 c0 -68 -5 -146 -11 -173 l-10 -49
-97 -7 c-53 -4 -254 -27 -447 -51 -192 -24 -393 -47 -445 -50 -52 -4 -104 -9
-114 -12 -18 -5 -19 0 -12 98 3 57 13 370 21 694 14 558 28 944 41 1081 l5 62
157 7 c459 22 874 28 900 12z m1279 0 c4 -5 9 -86 11 -181 l4 -173 -33 -7
c-19 -3 -176 -11 -349 -16 -173 -6 -318 -14 -322 -18 -11 -11 -15 -284 -5
-299 6 -10 52 -13 171 -13 l163 0 7 -37 c5 -36 9 -322 4 -324 -2 0 -72 -6
-156 -13 -111 -9 -156 -17 -163 -27 -10 -16 -12 -179 -2 -269 l6 -63 353 6
352 7 8 -67 c7 -68 0 -215 -11 -244 -8 -21 -47 -29 -141 -29 -41 0 -210 -9
-376 -20 -167 -10 -371 -21 -454 -22 l-152 -4 -6 136 c-19 433 -15 1645 6
1665 2 2 141 8 308 13 360 11 765 10 777 -1z m3093 -12 c52 -9 95 -17 96 -18
7 -7 16 -310 10 -349 l-7 -45 -232 -7 c-128 -3 -285 -9 -349 -13 l-117 -6 -11
-33 c-25 -76 -5 -211 33 -215 6 -1 82 -4 167 -8 l155 -6 3 -211 2 -211 -67 -6
c-38 -4 -116 -9 -174 -13 l-106 -7 -7 -75 c-3 -41 -6 -182 -6 -312 0 -178 -3
-240 -12 -247 -13 -10 -301 -1 -400 12 l-48 7 0 868 c0 478 4 871 8 874 7 4
329 32 472 40 137 8 497 -4 590 -19z m-7358 -4 c180 -49 303 -186 344 -381 17
-81 14 -293 -6 -329 -8 -15 -32 -21 -137 -31 -185 -18 -184 -18 -199 58 -16
78 -50 147 -88 179 -27 23 -37 25 -104 21 -68 -3 -76 -6 -102 -35 -50 -56
-103 -263 -149 -579 -46 -310 -64 -641 -41 -725 6 -19 21 -46 35 -59 34 -32
101 -31 176 2 75 34 122 78 148 139 29 66 56 208 43 221 -7 7 -41 6 -101 -3
-50 -7 -92 -11 -95 -8 -2 2 0 45 5 94 6 50 13 126 17 169 7 76 9 81 38 98 40
24 192 45 377 54 l147 7 0 -64 c0 -202 -44 -527 -97 -709 -36 -127 -76 -194
-173 -291 -78 -80 -96 -92 -220 -152 -181 -89 -275 -119 -371 -121 -65 -1 -83
3 -135 29 -74 38 -114 94 -140 197 -62 242 34 1384 151 1794 37 130 78 206
152 285 70 74 151 122 246 145 79 19 202 17 279 -5z m10952 -23 c3 -13 10 -79
16 -148 13 -150 54 -495 80 -675 10 -71 21 -191 25 -265 4 -74 33 -413 64
-753 l57 -619 -26 6 c-14 4 -90 19 -170 34 -142 28 -144 29 -151 58 -4 16 -21
162 -39 324 -63 591 -123 1040 -140 1040 -9 0 -32 -89 -70 -265 -38 -178 -40
-187 -54 -182 -16 5 -61 100 -138 292 l-69 170 6 -140 c8 -196 38 -504 85
-868 22 -171 37 -313 34 -316 -7 -7 -164 17 -279 43 l-100 22 -7 41 c-12 72
-37 336 -88 933 -28 322 -57 632 -65 690 -47 337 -55 409 -55 479 0 42 5 83
10 91 7 12 41 16 179 18 l170 3 31 -60 c16 -33 61 -140 100 -238 68 -174 92
-223 110 -223 11 0 25 70 45 225 17 135 32 215 46 262 10 31 12 32 72 36 34 2
119 4 189 5 125 2 128 2 132 -20z m-5305 -2326 c3 -185 4 -382 4 -437 0 -99
-21 -1190 -22 -1190 -1 0 -95 1 -211 3 -190 3 -210 4 -210 20 -8 549 -32 1082
-50 1082 -10 0 -34 -52 -110 -238 -66 -161 -89 -200 -109 -188 -18 11 -93 168
-142 296 l-44 115 -7 -45 c-23 -154 -18 -735 8 -981 l6 -56 -116 -6 c-64 -3
-167 -3 -230 0 l-114 6 -5 31 c-3 17 -7 444 -9 948 -2 688 0 920 9 929 7 7 87
15 223 21 l213 9 24 -23 c23 -22 59 -91 149 -286 21 -46 46 -88 56 -93 21 -12
35 12 79 139 17 48 50 128 75 179 l44 92 98 4 c53 1 162 4 242 5 l145 2 4
-338z m1036 283 c369 -22 651 -48 665 -61 7 -8 5 -164 -4 -266 l-8 -87 -56 -7
c-34 -4 -182 2 -367 15 -170 12 -351 21 -401 21 l-91 0 -7 -127 c-7 -134 -1
-212 18 -218 6 -2 102 -11 214 -18 112 -8 206 -17 209 -20 7 -8 3 -247 -5
-327 l-7 -65 -197 -5 c-108 -3 -200 -9 -205 -13 -11 -12 -16 -339 -5 -356 11
-15 333 -30 679 -30 l192 -1 -4 -62 c-3 -35 -7 -97 -9 -138 -7 -100 -21 -138
-54 -148 -35 -9 -224 -8 -810 4 -375 8 -486 13 -492 23 -21 34 -24 1726 -3
1870 l6 44 241 -6 c133 -4 358 -14 501 -22z m-2975 -231 c27 -83 72 -234 101
-335 69 -249 331 -1288 333 -1319 l1 -25 -203 0 c-164 1 -205 3 -216 15 -8 8
-39 87 -69 176 -75 220 -86 240 -136 249 -63 11 -170 -4 -181 -25 -5 -10 -27
-92 -49 -184 -22 -91 -47 -179 -56 -196 l-16 -30 -235 0 c-219 0 -235 1 -231
18 9 30 15 63 62 307 114 593 227 1061 341 1407 l45 136 37 6 c20 3 89 10 152
17 63 6 142 14 175 17 l60 7 18 -45 c9 -25 40 -113 67 -196z m4510 71 c159
-28 318 -87 420 -155 74 -51 162 -145 195 -210 28 -56 45 -179 31 -234 -6 -25
-10 -26 -69 -26 -97 0 -269 20 -339 38 -60 16 -63 19 -68 52 -9 49 -23 73 -65
104 -94 72 -239 87 -299 31 -58 -53 -53 -152 10 -203 36 -30 58 -38 233 -87
176 -48 327 -139 451 -272 103 -109 133 -178 134 -298 1 -86 -2 -95 -41 -175
-49 -102 -98 -161 -176 -211 -120 -78 -255 -110 -457 -110 -151 0 -269 20
-407 69 -110 39 -184 85 -253 159 -70 75 -100 145 -100 237 0 61 1 64 27 71
30 7 395 -5 432 -15 16 -4 28 -16 32 -35 29 -105 230 -165 354 -105 64 31 78
57 73 129 -6 83 -36 119 -141 171 -59 29 -121 49 -222 70 -179 39 -249 72
-335 159 -297 301 -160 757 255 850 64 14 233 12 325 -4z m-5922 -20 c131 -31
238 -109 287 -210 30 -61 46 -158 38 -225 -5 -46 -8 -50 -37 -55 -71 -11 -230
-25 -295 -25 l-69 0 -13 37 c-17 53 -107 140 -152 148 -50 10 -191 -11 -223
-32 -76 -49 -121 -303 -111 -623 8 -266 30 -345 109 -397 37 -25 50 -28 122
-27 95 0 182 23 225 60 36 30 51 77 51 157 l0 57 -125 0 -125 0 -1 38 c-1 20
-3 80 -4 133 l-3 96 32 11 c49 18 190 31 416 38 199 7 208 6 214 -12 16 -53
37 -336 31 -419 -16 -210 -48 -312 -116 -366 -85 -67 -170 -96 -384 -130 -110
-18 -385 -18 -455 0 -86 21 -194 75 -243 120 -126 116 -181 358 -180 791 1
418 50 568 227 694 100 71 242 122 406 145 41 6 86 13 100 15 43 8 212 -4 278
-19z"/>
<path d="M4774 9920 c-26 -10 -54 -48 -54 -72 0 -30 21 -65 47 -77 36 -17 59
-13 89 13 69 59 1 171 -82 136z"/>
<path d="M5330 9353 c-69 -9 -70 -13 -70 -233 l0 -197 50 -47 c27 -25 56 -46
65 -46 9 0 39 22 67 49 l51 48 23 184 c28 224 28 214 8 233 -15 16 -102 20
-194 9z"/>
<path d="M7105 9298 c-46 -25 -86 -74 -100 -123 -42 -138 61 -268 185 -235 52
14 119 67 148 115 48 83 10 194 -82 236 -46 21 -120 24 -151 7z"/>
<path d="M6730 8959 c-52 -21 -91 -73 -104 -138 -21 -110 96 -233 221 -233 76
0 125 50 144 145 14 69 3 119 -38 168 -50 59 -153 86 -223 58z"/>
<path d="M7482 8960 c-57 -13 -108 -55 -136 -111 -31 -63 -32 -90 -6 -146 35
-79 154 -130 241 -104 103 31 165 151 128 248 -30 81 -138 135 -227 113z"/>
<path d="M5725 8930 c-78 -9 -150 -22 -160 -28 -11 -6 -35 -26 -54 -45 -47
-50 -45 -78 13 -136 l46 -46 193 -3 c244 -4 236 -9 218 136 -7 53 -19 107 -27
120 -17 27 -32 27 -229 2z"/>
<path d="M4775 8900 c-18 -20 -18 -23 -1 -98 10 -42 25 -92 32 -111 l14 -34
135 7 c198 10 230 17 272 57 40 38 57 74 45 94 -4 8 -27 35 -51 60 l-43 45
-192 0 c-181 0 -194 -1 -211 -20z"/>
<path d="M5315 8729 c-57 -50 -62 -68 -70 -252 l-7 -167 43 -19 c24 -11 75
-28 112 -38 98 -25 97 -28 97 217 l0 196 -48 47 c-27 27 -57 47 -69 47 -12 0
-38 -14 -58 -31z"/>
<path d="M7127 8636 c-120 -43 -169 -153 -114 -256 63 -119 183 -142 284 -55
80 68 93 171 32 255 -48 66 -119 85 -202 56z"/>
<path d="M8411 8334 c0 -11 3 -14 6 -6 3 7 2 16 -1 19 -3 4 -6 -2 -5 -13z"/>
<path d="M2145 6136 c-27 -7 -67 -20 -87 -29 -36 -15 -38 -18 -38 -64 0 -26
-3 -113 -7 -192 l-6 -144 109 6 c177 11 218 28 261 103 30 52 39 117 25 181
-14 66 -44 107 -97 133 -47 23 -87 24 -160 6z"/>
<path d="M10080 6141 c-54 -16 -55 -18 -53 -51 14 -200 25 -316 31 -321 9 -9
163 -29 219 -29 109 0 159 61 151 184 -12 189 -155 278 -348 217z"/>
<path d="M8990 5965 c-10 -28 -32 -171 -58 -397 l-18 -146 36 -6 c39 -6 170
-8 170 -2 0 2 -13 96 -30 208 -48 337 -72 417 -100 343z"/>
<path d="M4519 3874 c-5 -16 -14 -49 -19 -74 -13 -62 -72 -501 -68 -505 2 -2
59 -1 127 2 l123 6 -7 61 c-10 94 -72 415 -92 476 -21 64 -47 78 -64 34z"/>
</g>
</svg>
